<svg width="27" height="30" viewBox="0 0 27 30" fill="none" xmlns="http://www.w3.org/2000/svg">
<path d="M2 10.9827C2 6.74821 2 4.63097 3.2631 3.31548C4.5262 2 6.55914 2 10.625 2H16.375C20.4409 2 22.4738 2 23.7369 3.31548C25 4.63097 25 6.74821 25 10.9827V21.2044C25 25.2216 25 27.2302 23.7863 27.8445C22.5727 28.4589 21.0562 27.2179 18.0231 24.736L17.0525 23.9417C15.3471 22.5462 14.4944 21.8484 13.5 21.8484C12.5056 21.8484 11.6529 22.5462 9.94753 23.9417L8.97685 24.736C5.94385 27.2179 4.42734 28.4589 3.21367 27.8445C2 27.2302 2 25.2216 2 21.2044V10.9827Z" stroke="white" stroke-width="3"/>
</svg>
